<?xml version="1.0" encoding="UTF-8" standalone="no"?>
<!DOCTYPE svg PUBLIC "-//W3C//DTD SVG 1.1//EN"
 "http://www.w3.org/Graphics/SVG/1.1/DTD/svg11.dtd">
<!-- Generated by graphviz version 2.38.0 (20140413.2041)
 -->
<!-- Title: controllers_diagram Pages: 1 -->
<svg width="527pt" height="474pt"
 viewBox="0.00 0.00 526.54 474.00" xmlns="http://www.w3.org/2000/svg" xmlns:xlink="http://www.w3.org/1999/xlink">
<g id="graph0" class="graph" transform="scale(1 1) rotate(0) translate(198.769 275.5)">
<title>controllers_diagram</title>
<polygon fill="white" stroke="none" points="-198.769,198.5 -198.769,-275.5 327.769,-275.5 327.769,198.5 -198.769,198.5"/>
<!-- _diagram_info -->
<g id="node1" class="node"><title>_diagram_info</title>
<text text-anchor="start" x="97.5503" y="-134.1" font-family="Times,serif" font-size="13.00">Controllers diagram</text>
<text text-anchor="start" x="97.5503" y="-121.1" font-family="Times,serif" font-size="13.00">Date: Dec 09 2014 &#45; 08:56</text>
<text text-anchor="start" x="97.5503" y="-108.1" font-family="Times,serif" font-size="13.00">Migration version: 20141128122107</text>
<text text-anchor="start" x="97.5503" y="-95.1" font-family="Times,serif" font-size="13.00">Generated by RailRoady 1.2.0</text>
<text text-anchor="start" x="97.5503" y="-82.1" font-family="Times,serif" font-size="13.00">http://railroady.prestonlee.com</text>
</g>
<!-- Api::AliasesController -->
<g id="node2" class="node"><title>Api::AliasesController</title>
<path fill="none" stroke="black" d="M192.231,-181C192.231,-181 311.769,-181 311.769,-181 317.769,-181 323.769,-187 323.769,-193 323.769,-193 323.769,-259 323.769,-259 323.769,-265 317.769,-271 311.769,-271 311.769,-271 192.231,-271 192.231,-271 186.231,-271 180.231,-265 180.231,-259 180.231,-259 180.231,-193 180.231,-193 180.231,-187 186.231,-181 192.231,-181"/>
<text text-anchor="middle" x="252" y="-255.8" font-family="Times,serif" font-size="14.00">Api::AliasesController</text>
<polyline fill="none" stroke="black" points="180.231,-249 323.769,-249 "/>
<text text-anchor="start" x="188.231" y="-233.8" font-family="Times,serif" font-size="14.00">index</text>
<polyline fill="none" stroke="black" points="180.231,-227 323.769,-227 "/>
<polyline fill="none" stroke="black" points="180.231,-203 323.769,-203 "/>
<text text-anchor="start" x="188.231" y="-187.8" font-family="Times,serif" font-size="14.00">_layout</text>
</g>
<!-- Api::BadgesController -->
<g id="node3" class="node"><title>Api::BadgesController</title>
<path fill="none" stroke="black" d="M-182.769,194C-182.769,194 -63.231,194 -63.231,194 -57.231,194 -51.231,188 -51.231,182 -51.231,182 -51.231,116 -51.231,116 -51.231,110 -57.231,104 -63.231,104 -63.231,104 -182.769,104 -182.769,104 -188.769,104 -194.769,110 -194.769,116 -194.769,116 -194.769,182 -194.769,182 -194.769,188 -188.769,194 -182.769,194"/>
<text text-anchor="middle" x="-123" y="119.2" font-family="Times,serif" font-size="14.00">Api::BadgesController</text>
<polyline fill="none" stroke="black" points="-194.769,126 -51.231,126 "/>
<text text-anchor="start" x="-186.769" y="141.2" font-family="Times,serif" font-size="14.00">index</text>
<polyline fill="none" stroke="black" points="-194.769,148 -51.231,148 "/>
<polyline fill="none" stroke="black" points="-194.769,172 -51.231,172 "/>
<text text-anchor="start" x="-186.769" y="187.2" font-family="Times,serif" font-size="14.00">_layout</text>
</g>
<!-- Api::EventsController -->
<g id="node4" class="node"><title>Api::EventsController</title>
<path fill="none" stroke="black" d="M-63.2139,-106C-63.2139,-106 53.2139,-106 53.2139,-106 59.2139,-106 65.2139,-112 65.2139,-118 65.2139,-118 65.2139,-198 65.2139,-198 65.2139,-204 59.2139,-210 53.2139,-210 53.2139,-210 -63.2139,-210 -63.2139,-210 -69.2139,-210 -75.2139,-204 -75.2139,-198 -75.2139,-198 -75.2139,-118 -75.2139,-118 -75.2139,-112 -69.2139,-106 -63.2139,-106"/>
<text text-anchor="middle" x="-5" y="-194.8" font-family="Times,serif" font-size="14.00">Api::EventsController</text>
<polyline fill="none" stroke="black" points="-75.2139,-188 65.2139,-188 "/>
<text text-anchor="start" x="-67.2139" y="-172.8" font-family="Times,serif" font-size="14.00">create</text>
<text text-anchor="start" x="-67.2139" y="-158.8" font-family="Times,serif" font-size="14.00">event_params</text>
<polyline fill="none" stroke="black" points="-75.2139,-152 65.2139,-152 "/>
<polyline fill="none" stroke="black" points="-75.2139,-128 65.2139,-128 "/>
<text text-anchor="start" x="-67.2139" y="-112.8" font-family="Times,serif" font-size="14.00">_layout</text>
</g>
<!-- ApplicationController -->
<g id="node5" class="node"><title>ApplicationController</title>
<path fill="none" stroke="black" d="M102.179,89C102.179,89 217.821,89 217.821,89 223.821,89 229.821,83 229.821,77 229.821,77 229.821,-33 229.821,-33 229.821,-39 223.821,-45 217.821,-45 217.821,-45 102.179,-45 102.179,-45 96.1792,-45 90.1792,-39 90.1792,-33 90.1792,-33 90.1792,77 90.1792,77 90.1792,83 96.1792,89 102.179,89"/>
<text text-anchor="middle" x="160" y="-29.8" font-family="Times,serif" font-size="14.00">ApplicationController</text>
<polyline fill="none" stroke="black" points="90.1792,-23 229.821,-23 "/>
<polyline fill="none" stroke="black" points="90.1792,1 229.821,1 "/>
<polyline fill="none" stroke="black" points="90.1792,25 229.821,25 "/>
<text text-anchor="start" x="98.1792" y="40.2" font-family="Times,serif" font-size="14.00">_layout</text>
<text text-anchor="start" x="98.1792" y="54.2" font-family="Times,serif" font-size="14.00">error_render_method</text>
<text text-anchor="start" x="98.1792" y="68.2" font-family="Times,serif" font-size="14.00">find_user</text>
<text text-anchor="start" x="98.1792" y="82.2" font-family="Times,serif" font-size="14.00">set_headers</text>
</g>
<!-- Debug::DebugController -->
<g id="node6" class="node"><title>Debug::DebugController</title>
<path fill="none" stroke="black" d="M-77.9863,74C-77.9863,74 53.9863,74 53.9863,74 59.9863,74 65.9863,68 65.9863,62 65.9863,62 65.9863,-60 65.9863,-60 65.9863,-66 59.9863,-72 53.9863,-72 53.9863,-72 -77.9863,-72 -77.9863,-72 -83.9863,-72 -89.9863,-66 -89.9863,-60 -89.9863,-60 -89.9863,62 -89.9863,62 -89.9863,68 -83.9863,74 -77.9863,74"/>
<text text-anchor="middle" x="-12" y="-56.8" font-family="Times,serif" font-size="14.00">Debug::DebugController</text>
<polyline fill="none" stroke="black" points="-89.9863,-50 65.9863,-50 "/>
<text text-anchor="start" x="-81.9863" y="-34.8" font-family="Times,serif" font-size="14.00">alias</text>
<text text-anchor="start" x="-81.9863" y="-20.8" font-family="Times,serif" font-size="14.00">badge</text>
<text text-anchor="start" x="-81.9863" y="-6.8" font-family="Times,serif" font-size="14.00">events</text>
<text text-anchor="start" x="-81.9863" y="7.2" font-family="Times,serif" font-size="14.00">fact</text>
<text text-anchor="start" x="-81.9863" y="21.2" font-family="Times,serif" font-size="14.00">users</text>
<polyline fill="none" stroke="black" points="-89.9863,28 65.9863,28 "/>
<polyline fill="none" stroke="black" points="-89.9863,52 65.9863,52 "/>
<text text-anchor="start" x="-81.9863" y="67.2" font-family="Times,serif" font-size="14.00">_layout</text>
</g>
</g>
</svg>
