<?xml version="1.0" encoding="UTF-8" standalone="no"?>
<!DOCTYPE svg PUBLIC "-//W3C//DTD SVG 1.1//EN"
 "http://www.w3.org/Graphics/SVG/1.1/DTD/svg11.dtd">
<!-- Generated by graphviz version 2.38.0 (20140413.2041)
 -->
<!-- Title: models_diagram Pages: 1 -->
<svg width="402pt" height="153pt"
 viewBox="0.00 0.00 402.45 153.00" xmlns="http://www.w3.org/2000/svg" xmlns:xlink="http://www.w3.org/1999/xlink">
<g id="graph0" class="graph" transform="scale(1 1) rotate(0) translate(4 149)">
<title>models_diagram</title>
<polygon fill="white" stroke="none" points="-4,4 -4,-149 398.45,-149 398.45,4 -4,4"/>
<!-- _diagram_info -->
<g id="node1" class="node"><title>_diagram_info</title>
<text text-anchor="start" x="8" y="-130.6" font-family="Times,serif" font-size="13.00">Models diagram</text>
<text text-anchor="start" x="8" y="-117.6" font-family="Times,serif" font-size="13.00">Date: Dec 09 2014 &#45; 08:56</text>
<text text-anchor="start" x="8" y="-104.6" font-family="Times,serif" font-size="13.00">Migration version: 20141128122107</text>
<text text-anchor="start" x="8" y="-91.6" font-family="Times,serif" font-size="13.00">Generated by RailRoady 1.2.0</text>
<text text-anchor="start" x="8" y="-78.6" font-family="Times,serif" font-size="13.00">http://railroady.prestonlee.com</text>
</g>
<!-- Alias -->
<g id="node2" class="node"><title>Alias</title>
<ellipse fill="none" stroke="black" cx="131.45" cy="-18" rx="28.5497" ry="18"/>
<text text-anchor="middle" x="131.45" y="-13.8" font-family="Times,serif" font-size="14.00">Alias</text>
</g>
<!-- Badge -->
<g id="node3" class="node"><title>Badge</title>
<ellipse fill="none" stroke="black" cx="210.45" cy="-18" rx="32.8994" ry="18"/>
<text text-anchor="middle" x="210.45" y="-13.8" font-family="Times,serif" font-size="14.00">Badge</text>
</g>
<!-- Event -->
<g id="node4" class="node"><title>Event</title>
<ellipse fill="none" stroke="black" cx="291.45" cy="-18" rx="30.9706" ry="18"/>
<text text-anchor="middle" x="291.45" y="-13.8" font-family="Times,serif" font-size="14.00">Event</text>
</g>
<!-- Fact -->
<g id="node5" class="node"><title>Fact</title>
<ellipse fill="none" stroke="black" cx="367.45" cy="-18" rx="27" ry="18"/>
<text text-anchor="middle" x="367.45" y="-13.8" font-family="Times,serif" font-size="14.00">Fact</text>
</g>
<!-- User -->
<g id="node6" class="node"><title>User</title>
<ellipse fill="none" stroke="black" cx="251.45" cy="-108.5" rx="27" ry="18"/>
<text text-anchor="middle" x="251.45" y="-104.3" font-family="Times,serif" font-size="14.00">User</text>
</g>
<!-- User&#45;&gt;Alias -->
<g id="edge1" class="edge"><title>User&#45;&gt;Alias</title>
<path fill="none" stroke="#c8cd11" d="M231.968,-86.7816C226.8,-81.7151 221.084,-76.4698 215.45,-72 198.352,-58.4368 177.629,-45.3304 161.045,-35.5442"/>
<ellipse fill="none" stroke="#c8cd11" cx="234.924" cy="-89.7537" rx="4.00002" ry="4.00002"/>
<polygon fill="#c8cd11" stroke="#c8cd11" points="160.952,-35.4908 154.566,-26.5762 156.629,-32.979 152.306,-30.4672 152.306,-30.4672 152.306,-30.4672 156.629,-32.979 150.045,-34.3582 160.952,-35.4908 160.952,-35.4908"/>
</g>
<!-- User&#45;&gt;Badge -->
<g id="edge3" class="edge"><title>User&#45;&gt;Badge</title>
<path fill="none" stroke="#6f6b9c" d="M240.257,-83.3411C234.715,-71.378 228.021,-56.9278 222.381,-44.7548"/>
<ellipse fill="none" stroke="#6f6b9c" cx="242.056" cy="-87.2244" rx="4.00002" ry="4.00002"/>
<polygon fill="#6f6b9c" stroke="#6f6b9c" points="222.331,-44.6451 222.21,-33.6799 220.229,-40.1083 218.127,-35.5715 218.127,-35.5715 218.127,-35.5715 220.229,-40.1083 214.044,-37.4632 222.331,-44.6451 222.331,-44.6451"/>
</g>
<!-- User&#45;&gt;Event -->
<g id="edge2" class="edge"><title>User&#45;&gt;Event</title>
<path fill="none" stroke="#796b2f" d="M262.369,-83.3411C267.776,-71.378 274.307,-56.9278 279.809,-44.7548"/>
<ellipse fill="none" stroke="#796b2f" cx="260.621" cy="-87.2088" rx="4.00002" ry="4.00002"/>
<polygon fill="#796b2f" stroke="#796b2f" points="279.841,-44.684 288.06,-37.4249 281.9,-40.1278 283.96,-35.5715 283.96,-35.5715 283.96,-35.5715 281.9,-40.1278 279.859,-33.7181 279.841,-44.684 279.841,-44.684"/>
</g>
<!-- User&#45;&gt;Fact -->
<g id="edge4" class="edge"><title>User&#45;&gt;Fact</title>
<path fill="none" stroke="#2374db" d="M275.126,-89.4363C294.656,-74.5365 322.295,-53.4501 342.235,-38.2371"/>
<ellipse fill="none" stroke="#2374db" cx="271.746" cy="-92.0153" rx="4.00002" ry="4.00002"/>
<polygon fill="#2374db" stroke="#2374db" points="342.313,-38.1777 352.993,-35.6897 346.288,-35.1449 350.263,-32.1121 350.263,-32.1121 350.263,-32.1121 346.288,-35.1449 347.534,-28.5344 342.313,-38.1777 342.313,-38.1777"/>
</g>
</g>
</svg>
