<?xml version="1.0" encoding="UTF-8" standalone="no"?>
<!DOCTYPE svg PUBLIC "-//W3C//DTD SVG 1.1//EN"
 "http://www.w3.org/Graphics/SVG/1.1/DTD/svg11.dtd">
<!-- Generated by graphviz version 2.38.0 (20140413.2041)
 -->
<!-- Title: models_diagram Pages: 1 -->
<svg width="648pt" height="302pt"
 viewBox="0.00 0.00 648.44 302.00" xmlns="http://www.w3.org/2000/svg" xmlns:xlink="http://www.w3.org/1999/xlink">
<g id="graph0" class="graph" transform="scale(1 1) rotate(0) translate(4 298)">
<title>models_diagram</title>
<polygon fill="white" stroke="none" points="-4,4 -4,-298 644.441,-298 644.441,4 -4,4"/>
<!-- _diagram_info -->
<g id="node1" class="node"><title>_diagram_info</title>
<text text-anchor="start" x="8" y="-258.6" font-family="Times,serif" font-size="13.00">Models diagram</text>
<text text-anchor="start" x="8" y="-245.6" font-family="Times,serif" font-size="13.00">Date: Dec 09 2014 &#45; 08:56</text>
<text text-anchor="start" x="8" y="-232.6" font-family="Times,serif" font-size="13.00">Migration version: 20141128122107</text>
<text text-anchor="start" x="8" y="-219.6" font-family="Times,serif" font-size="13.00">Generated by RailRoady 1.2.0</text>
<text text-anchor="start" x="8" y="-206.6" font-family="Times,serif" font-size="13.00">http://railroady.prestonlee.com</text>
</g>
<!-- Alias -->
<g id="node2" class="node"><title>Alias</title>
<path fill="none" stroke="black" d="M17.9443,-14.5C17.9443,-14.5 126.955,-14.5 126.955,-14.5 132.955,-14.5 138.955,-20.5 138.955,-26.5 138.955,-26.5 138.955,-116.5 138.955,-116.5 138.955,-122.5 132.955,-128.5 126.955,-128.5 126.955,-128.5 17.9443,-128.5 17.9443,-128.5 11.9443,-128.5 5.94434,-122.5 5.94434,-116.5 5.94434,-116.5 5.94434,-26.5 5.94434,-26.5 5.94434,-20.5 11.9443,-14.5 17.9443,-14.5"/>
<text text-anchor="middle" x="72.4497" y="-113.3" font-family="Times,serif" font-size="14.00">Alias</text>
<polyline fill="none" stroke="black" points="5.94434,-106.5 138.955,-106.5 "/>
<text text-anchor="start" x="13.9443" y="-91.3" font-family="Times,serif" font-size="14.00">id :integer</text>
<text text-anchor="start" x="13.9443" y="-77.3" font-family="Times,serif" font-size="14.00">username :string</text>
<text text-anchor="start" x="13.9443" y="-63.3" font-family="Times,serif" font-size="14.00">email :string</text>
<text text-anchor="start" x="13.9443" y="-49.3" font-family="Times,serif" font-size="14.00">user_id :integer</text>
<text text-anchor="start" x="13.9443" y="-35.3" font-family="Times,serif" font-size="14.00">created_at :datetime</text>
<text text-anchor="start" x="13.9443" y="-21.3" font-family="Times,serif" font-size="14.00">updated_at :datetime</text>
</g>
<!-- Badge -->
<g id="node3" class="node"><title>Badge</title>
<path fill="none" stroke="black" d="M168.944,-0.5C168.944,-0.5 277.955,-0.5 277.955,-0.5 283.955,-0.5 289.955,-6.5 289.955,-12.5 289.955,-12.5 289.955,-130.5 289.955,-130.5 289.955,-136.5 283.955,-142.5 277.955,-142.5 277.955,-142.5 168.944,-142.5 168.944,-142.5 162.944,-142.5 156.944,-136.5 156.944,-130.5 156.944,-130.5 156.944,-12.5 156.944,-12.5 156.944,-6.5 162.944,-0.5 168.944,-0.5"/>
<text text-anchor="middle" x="223.45" y="-127.3" font-family="Times,serif" font-size="14.00">Badge</text>
<polyline fill="none" stroke="black" points="156.944,-120.5 289.955,-120.5 "/>
<text text-anchor="start" x="164.944" y="-105.3" font-family="Times,serif" font-size="14.00">id :integer</text>
<text text-anchor="start" x="164.944" y="-91.3" font-family="Times,serif" font-size="14.00">name :string</text>
<text text-anchor="start" x="164.944" y="-77.3" font-family="Times,serif" font-size="14.00">description :string</text>
<text text-anchor="start" x="164.944" y="-63.3" font-family="Times,serif" font-size="14.00">picture :string</text>
<text text-anchor="start" x="164.944" y="-49.3" font-family="Times,serif" font-size="14.00">user_id :integer</text>
<text text-anchor="start" x="164.944" y="-35.3" font-family="Times,serif" font-size="14.00">created_at :datetime</text>
<text text-anchor="start" x="164.944" y="-21.3" font-family="Times,serif" font-size="14.00">updated_at :datetime</text>
<text text-anchor="start" x="164.944" y="-7.3" font-family="Times,serif" font-size="14.00">hasEarned :boolean</text>
</g>
<!-- Event -->
<g id="node4" class="node"><title>Event</title>
<path fill="none" stroke="black" d="M319.944,-14.5C319.944,-14.5 428.955,-14.5 428.955,-14.5 434.955,-14.5 440.955,-20.5 440.955,-26.5 440.955,-26.5 440.955,-116.5 440.955,-116.5 440.955,-122.5 434.955,-128.5 428.955,-128.5 428.955,-128.5 319.944,-128.5 319.944,-128.5 313.944,-128.5 307.944,-122.5 307.944,-116.5 307.944,-116.5 307.944,-26.5 307.944,-26.5 307.944,-20.5 313.944,-14.5 319.944,-14.5"/>
<text text-anchor="middle" x="374.45" y="-113.3" font-family="Times,serif" font-size="14.00">Event</text>
<polyline fill="none" stroke="black" points="307.944,-106.5 440.955,-106.5 "/>
<text text-anchor="start" x="315.944" y="-91.3" font-family="Times,serif" font-size="14.00">id :integer</text>
<text text-anchor="start" x="315.944" y="-77.3" font-family="Times,serif" font-size="14.00">name :string</text>
<text text-anchor="start" x="315.944" y="-63.3" font-family="Times,serif" font-size="14.00">data :text</text>
<text text-anchor="start" x="315.944" y="-49.3" font-family="Times,serif" font-size="14.00">user_id :integer</text>
<text text-anchor="start" x="315.944" y="-35.3" font-family="Times,serif" font-size="14.00">created_at :datetime</text>
<text text-anchor="start" x="315.944" y="-21.3" font-family="Times,serif" font-size="14.00">updated_at :datetime</text>
</g>
<!-- Fact -->
<g id="node5" class="node"><title>Fact</title>
<path fill="none" stroke="black" d="M470.458,-14.5C470.458,-14.5 628.441,-14.5 628.441,-14.5 634.441,-14.5 640.441,-20.5 640.441,-26.5 640.441,-26.5 640.441,-116.5 640.441,-116.5 640.441,-122.5 634.441,-128.5 628.441,-128.5 628.441,-128.5 470.458,-128.5 470.458,-128.5 464.458,-128.5 458.458,-122.5 458.458,-116.5 458.458,-116.5 458.458,-26.5 458.458,-26.5 458.458,-20.5 464.458,-14.5 470.458,-14.5"/>
<text text-anchor="middle" x="549.45" y="-113.3" font-family="Times,serif" font-size="14.00">Fact</text>
<polyline fill="none" stroke="black" points="458.458,-106.5 640.441,-106.5 "/>
<text text-anchor="start" x="466.458" y="-91.3" font-family="Times,serif" font-size="14.00">id :integer</text>
<text text-anchor="start" x="466.458" y="-77.3" font-family="Times,serif" font-size="14.00">user_id :integer</text>
<text text-anchor="start" x="466.458" y="-63.3" font-family="Times,serif" font-size="14.00">aggregated_fact_name :string</text>
<text text-anchor="start" x="466.458" y="-49.3" font-family="Times,serif" font-size="14.00">value :integer</text>
<text text-anchor="start" x="466.458" y="-35.3" font-family="Times,serif" font-size="14.00">created_at :datetime</text>
<text text-anchor="start" x="466.458" y="-21.3" font-family="Times,serif" font-size="14.00">updated_at :datetime</text>
</g>
<!-- User -->
<g id="node6" class="node"><title>User</title>
<path fill="none" stroke="black" d="M237.148,-179.5C237.148,-179.5 361.751,-179.5 361.751,-179.5 367.751,-179.5 373.751,-185.5 373.751,-191.5 373.751,-191.5 373.751,-281.5 373.751,-281.5 373.751,-287.5 367.751,-293.5 361.751,-293.5 361.751,-293.5 237.148,-293.5 237.148,-293.5 231.148,-293.5 225.148,-287.5 225.148,-281.5 225.148,-281.5 225.148,-191.5 225.148,-191.5 225.148,-185.5 231.148,-179.5 237.148,-179.5"/>
<text text-anchor="middle" x="299.45" y="-278.3" font-family="Times,serif" font-size="14.00">User</text>
<polyline fill="none" stroke="black" points="225.148,-271.5 373.751,-271.5 "/>
<text text-anchor="start" x="233.148" y="-256.3" font-family="Times,serif" font-size="14.00">id :integer</text>
<text text-anchor="start" x="233.148" y="-242.3" font-family="Times,serif" font-size="14.00">username :string</text>
<text text-anchor="start" x="233.148" y="-228.3" font-family="Times,serif" font-size="14.00">email :string</text>
<text text-anchor="start" x="233.148" y="-214.3" font-family="Times,serif" font-size="14.00">password_digest :string</text>
<text text-anchor="start" x="233.148" y="-200.3" font-family="Times,serif" font-size="14.00">created_at :datetime</text>
<text text-anchor="start" x="233.148" y="-186.3" font-family="Times,serif" font-size="14.00">updated_at :datetime</text>
</g>
<!-- User&#45;&gt;Alias -->
<g id="edge1" class="edge"><title>User&#45;&gt;Alias</title>
<path fill="none" stroke="#7a6e23" d="M218.132,-180.616C217.235,-180.072 216.34,-179.533 215.45,-179 186.111,-161.433 175.268,-162.888 147.45,-143 144.015,-140.545 140.576,-137.942 137.162,-135.24"/>
<ellipse fill="none" stroke="#7a6e23" cx="221.65" cy="-182.777" rx="4.00002" ry="4.00002"/>
<polygon fill="#7a6e23" stroke="#7a6e23" points="136.999,-135.107 132.104,-125.294 133.128,-131.943 129.256,-128.779 129.256,-128.779 129.256,-128.779 133.128,-131.943 126.409,-132.263 136.999,-135.107 136.999,-135.107"/>
</g>
<!-- User&#45;&gt;Badge -->
<g id="edge3" class="edge"><title>User&#45;&gt;Badge</title>
<path fill="none" stroke="#e94829" d="M269.878,-172.076C266.772,-165.416 263.588,-158.586 260.413,-151.777"/>
<ellipse fill="none" stroke="#e94829" cx="271.604" cy="-175.779" rx="4.00002" ry="4.00002"/>
<polygon fill="#e94829" stroke="#e94829" points="260.324,-151.586 260.177,-140.621 258.211,-147.054 256.098,-142.523 256.098,-142.523 256.098,-142.523 258.211,-147.054 252.02,-144.424 260.324,-151.586 260.324,-151.586"/>
</g>
<!-- User&#45;&gt;Event -->
<g id="edge2" class="edge"><title>User&#45;&gt;Event</title>
<path fill="none" stroke="#5f3421" d="M328.661,-172.014C333.797,-160.853 339.151,-149.216 344.311,-138.001"/>
<ellipse fill="none" stroke="#5f3421" cx="326.932" cy="-175.771" rx="4.00002" ry="4.00002"/>
<polygon fill="#5f3421" stroke="#5f3421" points="344.411,-137.783 352.679,-130.58 346.501,-133.241 348.591,-128.699 348.591,-128.699 348.591,-128.699 346.501,-133.241 344.503,-126.818 344.411,-137.783 344.411,-137.783"/>
</g>
<!-- User&#45;&gt;Fact -->
<g id="edge4" class="edge"><title>User&#45;&gt;Fact</title>
<path fill="none" stroke="#f9be23" d="M380.815,-187.075C403.553,-173.16 428.139,-157.752 450.45,-143 454.686,-140.199 459.001,-137.301 463.343,-134.35"/>
<ellipse fill="none" stroke="#f9be23" cx="377.237" cy="-189.259" rx="4.00002" ry="4.00002"/>
<polygon fill="#f9be23" stroke="#f9be23" points="463.46,-134.27 474.253,-132.332 467.585,-131.445 471.71,-128.619 471.71,-128.619 471.71,-128.619 467.585,-131.445 469.168,-124.907 463.46,-134.27 463.46,-134.27"/>
</g>
</g>
</svg>
